PathFileType	4	(X/Y/Z)	D:\TRACE\spot_10-12-23\spot_arm_body_motion_1_7-platform.trc
DataRate	CameraRate	NumFrames	NumMarkers	Units	OrigDataRate	OrigDataStartFrame	OrigNumFrames
100.00	100.00	      76	5	mm	100.00	1	      7000
Frame#	Time	Left_Front			Right_Front			Left_Aft			Right_Aft			Post			
		X1	Y1	Z1	X2	Y2	Z2	X3	Y3	Z3	X4	Y4	Z4	X5	Y5	Z5	

1	0.000	-782.86499	13.28274	-651.20374	784.77911	11.12481	-626.72162	-714.14911	10.90670	487.30362	692.64215	8.67491	589.13269	5.07904	742.30316	-959.91504	
2	0.010	-782.87958	13.34557	-651.20691	784.79956	11.15373	-626.71021	-714.16418	10.91636	487.28262	692.69196	8.68293	589.09692	5.12008	742.31262	-959.92200	
3	0.020	-782.93219	13.39581	-651.23596	784.76331	11.13895	-626.71588	-714.18768	10.88815	487.29538	692.65613	8.68508	589.08551	5.06782	742.33514	-959.92731	
4	0.030	-782.90576	13.33113	-651.20319	784.75830	11.14587	-626.71472	-714.16876	10.95658	487.27548	692.66467	8.54538	589.16742	5.11419	742.27850	-959.87268	
5	0.040	-782.91919	13.42038	-651.24200	784.76434	11.17990	-626.72864	-714.16559	10.95709	487.30722	692.67615	8.69754	589.10614	5.07961	742.26331	-959.87201	
6	0.050	-782.90088	13.44518	-651.19202	784.75806	11.21226	-626.71979	-714.16821	10.91514	487.31409	692.69122	8.67346	589.10126	4.93863	742.43994	-959.98688	
7	0.060	-782.89264	13.40766	-651.20856	784.78595	11.11138	-626.71826	-714.16516	10.88015	487.29483	692.68378	8.66456	589.07489	5.06798	742.39258	-959.85132	
8	0.070	-782.82312	13.24604	-651.23798	784.78339	11.13350	-626.71075	-714.13007	10.90597	487.32321	692.64764	8.67364	589.08612	5.04416	742.36310	-959.83435	
9	0.080	-782.87500	13.31500	-651.22589	784.75568	11.16183	-626.73376	-714.19843	10.89688	487.29099	692.71582	8.69387	589.06738	5.06650	742.32324	-959.79883	
10	0.090	-782.91974	13.38312	-651.18042	784.73804	11.12796	-626.71906	-714.17133	10.90352	487.30014	692.71490	8.65897	589.09570	5.04788	742.29022	-959.82141	
11	0.100	-782.91260	13.36176	-651.16327	784.78821	11.06944	-626.71887	-714.13611	10.96618	487.31506	692.70526	8.72187	589.08582	4.98784	742.39948	-959.96698	
12	0.110	-782.87970	13.30080	-651.19507	784.74915	11.09956	-626.70483	-714.15564	10.96499	487.31949	692.65002	8.65847	589.08832	4.91898	742.41229	-959.99054	
13	0.120	-782.92139	13.35919	-651.17859	784.78400	11.16371	-626.71057	-714.16034	10.93526	487.29614	692.71674	8.70082	589.08453	5.11869	742.28021	-959.88916	
14	0.130	-782.88324	13.34029	-651.20776	784.74878	11.12547	-626.73682	-714.18958	10.91514	487.28851	692.68970	8.67373	589.06885	5.10309	742.32202	-959.91272	
15	0.140	-782.91425	13.40422	-651.17548	784.77423	11.10575	-626.71405	-714.17981	10.86835	487.27194	692.70789	8.68475	589.07581	5.09573	742.31860	-959.92938	
16	0.150	-782.91064	13.35388	-651.18005	784.79913	11.12578	-626.72125	-714.15143	10.88071	487.28088	692.67163	8.65029	589.06024	5.08354	742.33911	-959.94904	
17	0.160	-782.87286	13.30347	-651.20135	784.77856	11.19638	-626.69385	-714.15497	10.94703	487.33017	692.68311	8.68696	589.09857	5.10964	742.34094	-959.95496	
18	0.170	-782.94104	13.43002	-651.17798	784.78796	11.16800	-626.71088	-714.14899	10.94683	487.29709	692.69568	8.52774	589.17712	4.91028	742.43530	-960.14636	
19	0.180	-782.91693	13.35959	-651.21356	784.77142	11.11789	-626.73114	-714.19220	10.91806	487.27231	692.70380	8.64772	589.05261	4.95669	742.39111	-960.09808	
20	0.190	-782.93530	13.39048	-651.21021	784.76636	11.08306	-626.74469	-714.16449	10.93090	487.26547	692.76190	8.48063	588.76654	5.08045	742.29608	-959.92078	
21	0.200	-782.91858	13.27754	-651.17816	784.76147	11.09889	-626.73102	-714.18286	10.90794	487.29047	692.76758	8.53165	588.83105	5.08225	742.27557	-959.87445	
22	0.210	-782.84009	13.27170	-651.20563	784.78467	11.11517	-626.71851	-714.12671	10.92964	487.30029	692.73120	8.59936	588.93634	5.08672	742.28149	-959.84845	
23	0.220	-782.86224	13.37634	-651.19574	784.81653	11.11778	-626.71558	-714.13831	10.93353	487.28561	692.78278	8.64879	588.92999	5.09095	742.29974	-959.85498	
24	0.230	-782.92578	13.38338	-651.19635	784.77924	11.10314	-626.74066	-714.18079	10.91512	487.28305	692.82037	8.66432	588.94397	4.97706	742.40588	-960.02002	
25	0.240	-782.91284	13.31621	-651.21753	784.75415	11.11366	-626.71021	-714.17780	10.89202	487.31332	692.78522	8.61556	588.90417	5.03101	742.41364	-960.01331	
26	0.250	-782.94629	13.30812	-651.16132	784.76697	11.07843	-626.72253	-714.17871	10.87909	487.31638	692.87091	8.59456	588.81494	4.96625	742.38043	-960.00079	
27	0.260	-782.91492	13.35857	-651.16504	784.78790	11.12044	-626.73376	-714.16949	10.89773	487.30597	692.89026	8.54692	588.73010	5.08100	742.36188	-959.87109	
28	0.270	-782.90643	13.39063	-651.22601	784.79382	11.14901	-626.72046	-714.15161	10.90399	487.30377	692.88397	8.49412	588.73224	5.08219	742.33124	-959.89111	
29	0.280	-782.91449	13.36709	-651.21655	784.76788	11.15344	-626.71466	-714.15759	10.88013	487.27133	693.01196	8.47309	588.74567	5.08338	742.29468	-959.93622	
30	0.290	-782.91504	13.30868	-651.19312	784.75134	11.09550	-626.72913	-714.17194	10.92898	487.28293	692.89594	8.50181	588.67267	5.07590	742.27002	-959.92889	
31	0.300	-782.91113	13.31049	-651.19177	784.78687	11.06693	-626.71173	-714.12189	10.91399	487.30627	692.86029	8.42151	588.58246	4.94510	742.29791	-960.09381	
32	0.310	-782.90253	13.31888	-651.21625	784.77625	11.09576	-626.72595	-714.17047	10.87628	487.30411	692.73840	8.30135	588.58215	4.97249	742.39148	-960.06738	
33	0.320	-782.90137	13.34964	-651.20459	784.75769	11.13959	-626.72766	-714.14935	10.91784	487.30487	692.80029	8.31702	588.55725	4.90599	742.46350	-960.12823	
34	0.330	-782.88251	13.34533	-651.24512	784.79730	11.13619	-626.72266	-714.17084	10.94115	487.29855	692.96466	8.27784	588.63696	5.08621	742.32361	-959.96082	
35	0.340	-782.96021	13.37898	-651.19824	784.75549	11.12377	-626.72363	-714.18744	10.91094	487.30716	692.71606	8.57502	589.18359	5.07866	742.32312	-959.96179	
36	0.350	-782.92200	13.37775	-651.18396	784.75470	11.10552	-626.72711	-714.17633	10.90736	487.28857	692.71851	8.64884	589.05920	4.90024	742.47662	-960.10632	
37	0.360	-782.88171	13.31009	-651.18994	784.78003	11.10569	-626.72821	-714.14697	10.88762	487.29556	692.72345	8.68844	589.08435	5.08997	742.31763	-959.91559	
38	0.370	-782.86401	13.31670	-651.14630	784.78925	11.11665	-626.73108	-714.12555	10.88166	487.32526	692.69122	8.64579	589.05847	5.12614	742.27863	-959.85144	
39	0.380	-782.83148	13.29009	-651.23779	784.79584	11.12313	-626.73145	-714.15790	10.87377	487.30063	692.70422	8.69425	589.07703	5.00051	742.37689	-959.97406	
40	0.390	-782.91205	13.32512	-651.17188	784.77405	11.10169	-626.69165	-714.16119	10.93413	487.28882	692.65021	8.67981	589.09674	5.04545	742.28778	-959.85590	
41	0.400	-782.93195	13.33985	-651.19427	784.76111	11.07568	-626.72003	-714.19708	10.92364	487.28680	692.69165	8.58109	589.16309	5.04442	742.25269	-959.86816	
42	0.410	-782.89703	13.33121	-651.20111	784.76373	11.07503	-626.73578	-714.19476	10.90648	487.27780	692.71051	8.65889	589.05255	5.07472	742.27112	-959.87823	
43	0.420	-782.91241	13.31224	-651.21332	784.77716	11.11465	-626.73389	-714.19263	10.88534	487.28494	692.70959	8.68655	589.04346	5.10074	742.31494	-959.91235	
44	0.430	-782.83081	13.32659	-651.23755	784.76563	11.13019	-626.73059	-714.13483	10.91371	487.30264	692.71411	8.72989	589.06879	4.95561	742.37372	-960.08411	
45	0.440	-782.90936	13.36108	-651.21796	784.79297	11.14963	-626.70996	-714.13574	10.90812	487.30408	692.73505	8.70586	589.13544	4.95427	742.38867	-960.08972	
46	0.450	-782.84216	13.31473	-651.22614	784.79688	11.11844	-626.70618	-714.16998	10.90872	487.27899	692.68640	8.66790	589.10925	4.96849	742.40509	-960.08447	
47	0.460	-782.85809	13.31667	-651.19330	784.79749	11.10172	-626.71857	-714.18549	10.91556	487.27817	692.72485	8.67670	589.09448	5.11014	742.27789	-959.96881	
48	0.470	-782.83356	13.24651	-651.22064	784.77405	11.09649	-626.75079	-714.17377	10.87883	487.27646	692.69629	8.68577	589.10791	5.11306	742.27063	-959.95483	
49	0.480	-782.85968	13.31580	-651.19824	784.77802	11.11969	-626.75977	-714.18195	10.91428	487.25925	692.66833	8.70849	589.10492	5.09120	742.28162	-959.95319	
50	0.490	-782.85059	13.35657	-651.21472	784.77478	11.12439	-626.73669	-714.16766	10.94228	487.26993	692.73547	8.55572	589.13501	5.07397	742.28986	-959.91248	
51	0.500	-782.80963	13.31602	-651.23761	784.79645	11.12367	-626.70020	-714.16510	10.95606	487.29031	692.81409	8.61878	589.10339	4.94860	742.43353	-960.06586	
52	0.510	-782.88202	13.29015	-651.19165	784.77124	11.08301	-626.70697	-714.18353	10.91037	487.27429	692.73193	8.68014	589.08344	4.99948	742.37915	-960.04059	
53	0.520	-782.88293	13.31230	-651.19220	784.77008	11.10277	-626.72925	-714.19135	10.90944	487.32269	692.72552	8.69426	589.07465	5.08296	742.29681	-959.89288	
54	0.530	-782.84924	13.31342	-651.22986	784.76642	11.14956	-626.73138	-714.18140	10.88747	487.29898	692.72540	8.67700	589.08899	5.06133	742.34418	-959.88660	
55	0.540	-782.82764	13.35146	-651.20441	784.79919	11.16322	-626.74841	-714.15894	10.89806	487.29550	692.69733	8.69672	589.09369	5.06323	742.34204	-959.87054	
56	0.550	-782.91547	13.39522	-651.18115	784.78363	11.14111	-626.72375	-714.15643	10.91723	487.29819	692.69183	8.65266	589.06940	5.06467	742.34888	-959.85962	
57	0.560	-782.90710	13.34992	-651.21649	784.78162	11.12295	-626.72089	-714.17572	10.95062	487.29099	692.66736	8.65920	589.07404	5.05605	742.31354	-959.87073	
58	0.570	-782.95111	13.36369	-651.24023	784.73309	11.11564	-626.71271	-714.18219	10.92853	487.29120	692.70062	8.67978	589.07745	5.09194	742.24890	-959.85614	
59	0.580	-782.87262	13.31244	-651.24103	784.75830	11.08455	-626.74860	-714.16772	10.90605	487.28952	692.69971	8.68535	589.05585	4.97931	742.37567	-960.02417	
60	0.590	-782.85663	13.28539	-651.22302	784.75922	11.11785	-626.73602	-714.16321	10.90739	487.26028	692.73077	8.67628	589.11041	5.05955	742.29437	-959.89813	
61	0.600	-782.85986	13.32202	-651.21747	784.79639	11.12182	-626.74219	-714.14758	10.91126	487.29111	692.68903	8.68263	589.08197	5.07551	742.30182	-959.93274	
62	0.610	-782.89886	13.33815	-651.21796	784.76520	11.15270	-626.72406	-714.16650	10.90315	487.29614	692.67999	8.66484	589.07556	5.05537	742.32239	-959.95221	
63	0.620	-782.90375	13.35547	-651.21173	784.76495	11.09355	-626.72150	-714.16486	10.91018	487.29111	692.72491	8.66240	589.06738	5.08648	742.32227	-959.95319	
64	0.630	-782.88098	13.30307	-651.23743	784.77405	11.14233	-626.72693	-714.18427	10.92184	487.26108	692.67548	8.55623	589.12170	4.97815	742.43616	-960.11371	
65	0.640	-782.91608	13.37817	-651.20947	784.76648	11.13743	-626.73096	-714.19238	10.92678	487.29803	692.71790	8.70128	589.07941	5.02748	742.38855	-960.07837	
66	0.650	-782.84698	13.34512	-651.22137	784.78601	11.12576	-626.75171	-714.13257	10.93724	487.28409	692.69580	8.67438	589.09973	4.98711	742.42371	-960.05994	
67	0.660	-782.87146	13.32050	-651.21313	784.77905	11.11944	-626.72247	-714.15009	10.91526	487.29376	692.73657	8.68725	589.08020	5.07436	742.28687	-959.90320	
68	0.670	-782.84418	13.27297	-651.23474	784.75354	11.11407	-626.73352	-714.16827	10.89148	487.28757	692.70587	8.69135	589.06909	5.07450	742.27380	-959.88574	
69	0.680	-782.86749	13.28294	-651.21350	784.77289	11.08909	-626.72418	-714.18311	10.89033	487.29144	692.69073	8.68404	589.05688	5.07672	742.27795	-959.88708	
70	0.690	-782.87384	13.31288	-651.20984	784.75861	11.09715	-626.73401	-714.16846	10.89090	487.28659	692.72101	8.55175	589.14996	5.06595	742.27838	-959.87329	
71	0.700	-782.89258	13.34207	-651.20294	784.78345	11.14584	-626.72668	-714.15155	10.93211	487.29282	692.65546	8.53882	589.16473	4.97167	742.44257	-959.98621	
72	0.710	-782.98291	13.36364	-651.18726	784.79852	11.11861	-626.70569	-714.22113	10.91638	487.29132	692.70227	8.56488	589.16754	4.94742	742.41699	-960.01093	
73	0.720	-782.93896	13.37054	-651.22070	784.78168	11.10680	-626.71692	-714.17120	10.90936	487.30234	692.69928	8.65282	589.07690	5.09420	742.33160	-959.89514	
74	0.730	-782.87109	13.32448	-651.22144	784.78259	11.12061	-626.70074	-714.18719	10.88492	487.28015	692.67804	8.65798	589.10693	5.10749	742.32520	-959.90009	
75	0.740	-782.85022	13.34096	-651.21490	784.78772	11.13116	-626.73340	-714.16846	10.89750	487.27057	692.66772	8.68697	589.09912	5.08797	742.29865	-959.88873	
76	0.750	-782.91632	13.38433	-651.20935	784.82910	11.14097	-626.71753	-714.19495	10.92788	487.28607	692.68042	8.67646	589.09131	5.09707	742.30225	-959.90570	
